<?xml version="1.0" encoding="utf-8"?>
<!-- Generator: Adobe Illustrator 25.1.0, SVG Export Plug-In . SVG Version: 6.00 Build 0)  -->
<svg version="1.1" id="Layer_1" xmlns="http://www.w3.org/2000/svg" xmlns:xlink="http://www.w3.org/1999/xlink" x="0px" y="0px"
	 viewBox="0 0 307.3 160.3" style="enable-background:new 0 0 307.3 160.3;" xml:space="preserve">
<style type="text/css">
	.st0{fill-rule:evenodd;clip-rule:evenodd;fill:#E5231D;}
	.st1{fill:#E5231D;}
	.st2{fill:#243588;}
	.st3{fill-rule:evenodd;clip-rule:evenodd;fill:#243588;}
</style>
<path class="st0" d="M100,129v8.1h9c1.6,0,2.9-0.3,3.9-0.9c1-0.6,1.5-1.7,1.5-3.2c0-1.7-0.7-2.8-2-3.4c-1.1-0.4-2.6-0.6-4.4-0.6H100
	L100,129z M100,143.2v9.8h9c1.6,0,2.9-0.2,3.8-0.6c1.6-0.8,2.4-2.3,2.4-4.6c0-1.9-0.8-3.2-2.4-3.9c-0.9-0.4-2.1-0.6-3.7-0.6H100
	L100,143.2z M120.1,126.6c1.1,1.6,1.7,3.4,1.7,5.6c0,2.2-0.6,4-1.7,5.4c-0.6,0.8-1.6,1.5-2.8,2.1c1.9,0.7,3.3,1.8,4.2,3.2
	c1,1.5,1.4,3.3,1.4,5.4c0,2.2-0.5,4.1-1.6,5.8c-0.7,1.1-1.6,2.1-2.6,2.9c-1.2,0.9-2.6,1.5-4.2,1.8c-1.6,0.3-3.3,0.5-5.2,0.5H92.7
	v-36.7h17.8C115,122.7,118.2,124,120.1,126.6L120.1,126.6z"/>
<path class="st0" d="M137.1,129v9.9h8.7c1.7,0,3-0.2,3.9-0.6c1.5-0.7,2.3-2.1,2.3-4.1c0-2.2-0.7-3.7-2.2-4.5
	c-0.8-0.4-2.1-0.6-3.7-0.6L137.1,129L137.1,129z M153.5,123.6c1.4,0.6,2.6,1.4,3.5,2.6c0.8,0.9,1.4,2,1.9,3.1
	c0.5,1.1,0.7,2.4,0.7,3.9c0,1.7-0.4,3.5-1.3,5.1c-0.9,1.7-2.3,2.9-4.4,3.6c1.7,0.7,2.9,1.6,3.6,2.9c0.7,1.2,1.1,3.2,1.1,5.7v2.5
	c0,1.7,0.1,2.8,0.2,3.4c0.2,0.9,0.7,1.6,1.4,2.1v0.9h-8.4c-0.2-0.8-0.4-1.5-0.5-2c-0.2-1-0.3-2.1-0.3-3.2l-0.1-3.4
	c0-2.3-0.5-3.9-1.3-4.7c-0.8-0.8-2.3-1.2-4.6-1.2h-7.9v14.4h-7.5v-36.7h18C150.1,122.7,152.1,123,153.5,123.6L153.5,123.6z"/>
<path class="st0" d="M176.2,145.5h9.3l-4.6-14.4L176.2,145.5L176.2,145.5z M176.7,122.7h8.7l13,36.7H190l-2.4-7.5h-13.5l-2.5,7.5h-8
	L176.7,122.7L176.7,122.7z"/>
<polygon class="st1" points="203.1,122.7 210.7,122.7 210.7,137.8 224.8,122.7 234.7,122.7 219.7,137.8 235.5,159.3 225.6,159.3 
	214.3,143.3 210.7,147.1 210.7,159.3 203.1,159.3 "/>
<polygon class="st1" points="266.9,129.1 247.5,129.1 247.5,136.9 265.3,136.9 265.3,143.3 247.5,143.3 247.5,152.7 267.8,152.7 
	267.8,159.3 240,159.3 240,122.7 266.9,122.7 "/>
<path class="st1" d="M279.3,148c0.2,1.7,0.7,2.9,1.4,3.8c1.2,1.5,3.4,2.3,6.4,2.3c1.8,0,3.3-0.2,4.4-0.6c2.1-0.8,3.2-2.2,3.2-4.3
	c0-1.2-0.5-2.1-1.6-2.8c-1.1-0.6-2.7-1.2-5-1.7l-3.9-0.9c-3.8-0.9-6.5-1.8-7.9-2.8c-2.5-1.7-3.7-4.3-3.7-7.9c0-3.3,1.2-6,3.6-8.2
	c2.4-2.2,5.9-3.3,10.5-3.3c3.9,0,7.2,1,9.9,3.1c2.7,2,4.2,5,4.3,8.9h-7.4c-0.1-2.2-1.1-3.8-2.9-4.7c-1.2-0.6-2.7-0.9-4.5-0.9
	c-2,0-3.5,0.4-4.7,1.2c-1.2,0.8-1.8,1.9-1.8,3.3c0,1.3,0.6,2.3,1.7,2.9c0.7,0.4,2.3,0.9,4.8,1.5l6.3,1.5c2.8,0.7,4.9,1.6,6.3,2.7
	c2.2,1.7,3.3,4.2,3.3,7.5c0,3.4-1.3,6.1-3.9,8.4c-2.6,2.2-6.2,3.3-10.8,3.3c-4.8,0-8.5-1.1-11.3-3.3c-2.7-2.2-4.1-5.2-4.1-9
	L279.3,148L279.3,148z"/>
<polygon class="st2" points="82.1,2.7 82.1,25 31.3,25 31.3,42.5 73.8,42.5 73.8,65.3 31.1,65.3 31.1,85.9 83.4,85.9 83.4,109.7 
	0,109.7 0,2.7 "/>
<path class="st2" d="M271.5,37.6h30c0,0,2.4-37.6-51.9-37.6c-54.3,0-56.2,49.4-56.2,49.4s-6.6,62,57.9,63c0,0,49.3,0.4,50.8-42.2
	h-29.8c0,0-0.3,8.5-6,14.7c0,0-4.9,6.3-16.1,6.3c0,0-25.1,1.7-25.3-34.4c0,0-3.4-34.8,24.9-37.1C249.8,19.7,268.3,18.2,271.5,37.6z"
	/>
<g>
	<path class="st2" d="M301.3,3.1c3.4,0,6,2.6,6,5.9c0,3.3-2.6,5.9-6,5.9c-3.4,0-6.1-2.6-6.1-5.9C295.2,5.7,297.9,3.1,301.3,3.1
		C301.2,3.1,301.3,3.1,301.3,3.1z M301.2,4.3c-2.6,0-4.5,2.1-4.5,4.7c0,2.6,1.9,4.7,4.6,4.7c2.6,0,4.5-2.1,4.5-4.7
		C305.8,6.4,303.9,4.3,301.2,4.3L301.2,4.3z M300.3,12H299V6.2c0.5-0.1,1.3-0.2,2.3-0.2c1.1,0,1.6,0.2,2,0.5
		c0.3,0.3,0.6,0.7,0.6,1.3c0,0.7-0.5,1.2-1.2,1.4v0.1c0.6,0.2,0.9,0.6,1.1,1.4c0.2,0.9,0.3,1.3,0.4,1.4h-1.5
		c-0.2-0.2-0.3-0.7-0.5-1.4c-0.1-0.6-0.5-0.9-1.2-0.9h-0.6L300.3,12L300.3,12z M300.4,8.7h0.6c0.8,0,1.4-0.3,1.4-0.9
		c0-0.5-0.4-0.9-1.3-0.9c-0.4,0-0.6,0-0.8,0.1L300.4,8.7L300.4,8.7z"/>
</g>
<path class="st3" d="M91.8,2.5v106.9h63.3c18.5,0,36.9-12.9,35.9-31.4c-0.7-13-7.9-22.5-20.2-26.7c9.9-4.7,15-13.3,14.6-24.3
	c-0.5-14.8-14.4-24.4-29.2-24.4L91.8,2.5L91.8,2.5z M122.7,23.8v19.4h20.5c3.7,0,6.6-0.7,8.9-2.1c2.3-1.5,3.5-4,3.5-7.7
	c0-4.1-1.5-6.8-4.5-8.1c-2.6-0.9-5.9-1.4-10-1.4L122.7,23.8L122.7,23.8z M122.7,65.3v21.7h22.7c4.1,0,7.2-0.5,9.5-1.4
	c4.1-1.8,6.2-5.1,6.2-10.1c0-4.2-2-7.1-6-8.7c-2.2-0.9-5.3-1.3-9.4-1.4H122.7L122.7,65.3z"/>
</svg>
